<?xml version="1.0" standalone="no"?>
<!DOCTYPE svg PUBLIC "-//W3C//DTD SVG 1.1//EN" "http://www.w3.org/Graphics/SVG/1.1/DTD/svg11.dtd" >
<!--
2013-9-30: Created.
-->
<svg>
<metadata>
Created by iconfont
</metadata>
<defs>

<font id="iconfont" horiz-adv-x="1024" >
  <font-face
    font-family="iconfont"
    font-weight="500"
    font-stretch="normal"
    units-per-em="1024"
    ascent="896"
    descent="-128"
  />
    <missing-glyph />
    
    <glyph glyph-name="lpf" unicode="&#58886;" d="M284.450038-103.008171c-6.627884 9.464601-9.211561 27.634682-9.211561 64.760601 0 76.094149-16.647399 77.235051-29.05082 1.993248-9.60222-58.288092-16.758381-73.989918-33.720971-73.989918-17.974751 0-34.524485 31.99852-64.254519 124.21179C103.46396 152.749144 68.069371 332.616517 68.069371 421.282781 68.069371 479.042596 78.159914 505.341046 100.32537 505.341046c15.457665 0 24.784647-10.330266 64.139097-71.028901 19.985757-30.826543 31.416971-41.796069 57.502335-55.185016 30.542427-15.67963 36.206982-16.57637 91.742704-14.494335 64.756161 2.419422 98.978773 13.570959 130.045038 42.35986 9.437965 8.749873 19.999075 14.631954 23.466173 13.069318 82.495629-37.139236 76.862149-36.038288 186.459743-36.41119 70.176554-0.235283 103.906403-2.450497 105.39801-6.925318 7.600092-22.795838-65.803837-355.588434-96.985524-439.708849-16.984786-45.813641-29.401526-57.542288-47.172069-44.552878-9.27815 6.78326-11.515561 17.53526-13.18474 63.402173-1.100948 30.378173-4.452624 57.782011-7.440277 60.898403-11.502243 11.995006-23.217572-12.816277-29.334936-62.114773-4.15963-33.547838-9.682127-53.613502-16.727306-60.747468-10.126058-10.259237-10.978404-10.259237-22.977849 0-7.857572 6.712231-17.357688 29.268346-25.690266 60.964994-16.563052 63.015953-38.324531 88.786126-74.962126 88.786126-40.473155 0-64.303352-27.790057-87.60971-102.170635C326.73887-91.244009 310.322315-116.161835 299.019841-116.161835c-2.947699 0-9.500115 5.917595-14.569803 13.153664z m287.382932 525.560594c-14.294566 3.027607-42.834866 13.388948-63.41549 23.022242-29.960878 14.019329-38.169156 20.833664-41.187884 34.195977-11.222566 49.702473-17.770543 68.02349-40.783907 114.112368-57.169386 114.507467-62.90497 181.323466-20.034589 233.329939 27.554774 33.427976 39.278982 29.432601 67.166704-22.906821 12.99385-24.389549 25.623676-44.366427 28.065294-44.393062 2.441618-0.031075 4.439306 12.110428 4.439307 26.973225 0 40.206797 24.868994 79.516854 50.306219 79.516854 10.752 0 17.113526-11.036115 40.948161-71.015583 15.519815-39.057017 30.697803-72.547143 33.72541-74.420531 3.032046-1.873387 35.416786 8.541225 71.961155 23.146543 81.71875 32.655537 133.245778 46.532809 176.489061 47.536092 59.118242 1.371746 81.132762-22.71593 73.874496-80.82201-11.892902-95.178727-128.100622-262.305291-196.195142-282.162308-30.933086-9.02067-152.712137-13.038243-185.358795-6.112925z m68.121155 180.724159c15.306728 23.097711-18.396485 50.687999-37.982704 31.10178-10.463445-10.463445-8.63889-32.837549 3.254011-39.856092 14.196902-8.376971 25.21526-5.597965 34.728693 8.758752zM195.441947-90.524841c-28.60245 43.647259-92.817016 281.776088-112.882681 418.599947C59.830018 483.077925 90.035058 548.44671 141.699705 456.064746c42.279953-75.601386 83.134889-101.349363 160.170171-100.949825 58.092762 0.306312 108.718611 14.481017 135.416599 37.924994 11.022798 9.677688 22.152138 17.601849 24.718058 17.601849 2.574798 0 20.86474-6.472509 40.650727-14.383352 53.360462-21.326427 126.076299-29.889849 190.259789-22.409618 29.015306 3.382751 54.603467 5.003098 56.867514 3.604716 13.912786-8.598936-69.528415-383.911208-101.336045-455.819091-21.872462-49.453872-41.742797-26.75126-41.742797 47.695907 0 47.22534-9.371376 64.756161-28.256184 52.845502-12.074913-7.61785-17.260023-24.966659-21.943491-73.412809-2.055399-21.264277-6.170636-42.572947-9.15385-47.35408-11.053873-17.721711-26.089803 3.027607-40.628531 56.041803-19.044624 69.452947-39.287861 92.124484-82.273664 92.124484-48.494982 0-64.6363-18.631769-97.367305-112.385478-22.272-63.797271-50.559259-48.534936-42.643976 23.013364 4.084162 36.961664-3.888832 65.697294-18.232231 65.697294-11.719769 0-23.768046-29.090774-28.913202-69.781456-7.48467-59.211467-22.58719-76.045317-41.84934-46.639352z m366.868711 520.961472c-31.798751 8.283746-80.453548 31.297109-86.677455 41.001433-2.099792 3.267329-5.526936 16.89156-7.622289 30.276069-2.095353 13.388948-19.444162 57.639953-38.550936 98.330634C376.024048 713.846384 370.030985 769.204534 405.785158 818.56518c25.676948 35.447861 36.300208 32.353664 64.361062-18.751629 39.887167-72.640369 41.445364-73.559305 41.667329-24.549364 0.221965 49.538219 16.731745 82.260346 41.503075 82.260345 12.638705 0 17.419838-8.004069 43.327629-72.507189 16.017017-39.878288 32.069549-72.50719 35.669826-72.50719 3.604717 0 35.940624 11.884023 71.859051 26.413872 79.650034 32.207167 162.944738 52.881017 195.515928 48.517179 15.928231-2.130867 28.260624-8.51015 37.711907-19.497433 12.199214-14.183584 13.646428-20.642774 11.00504-49.200832-8.869734-95.902334-122.240738-263.574933-192.488321-284.688273-34.249248-10.290312-159.051466-12.625387-193.607026-3.618035z m78.90867 166.722587c22.986728 29.223953-6.303815 62.32786-37.232462 42.062427-18.893688-12.381225-19.799306-35.172624-1.882266-47.722542 18.11237-12.683098 25.526011-11.613225 39.110288 5.660115zM191.672976-70.290483C142.813971 43.124914 88.503497 275.300633 81.955521 398.797695 76.761532 496.719913 94.358942 519.680005 130.219659 461.764816c36.713063-59.286936 53.613502-77.554681 88.058079-95.169849 29.969757-15.328925 40.344416-17.490867 82.61549-17.21119 58.310288 0.390659 105.46016 13.1803 139.500761 37.840647l25.304046 18.329895 37.219144-14.898312c51.757872-20.718242 124.171836-29.476994 186.752738-22.58719 27.616924 3.040925 52.002034 3.875514 54.190611 1.851191 10.996162-10.166011-63.943768-350.873891-95.524992-434.288457-21.641618-57.164947-35.487815-42.675051-35.629873 37.290173-0.084347 45.525086-5.535815 58.891837-24.025525 58.891838-18.938081 0-29.299422-20.793711-35.638751-71.543861-9.873017-79.068484-20.367537-78.939745-41.445364 0.51496-10.796393 40.703999-17.553017 54.554635-35.367953 72.511629-19.64837 19.799306-25.246335 22.196531-51.864416 22.196531-48.872323 0-72.82238-26.902196-101.438148-113.943674-20.256555-61.604253-41.898173-47.833525-33.27704 21.171051 4.332763 34.653225-2.907746 61.404485-18.201156 67.273248-15.968185 6.126243-29.996393-17.908162-37.805133-64.7606-11.90178-71.459513-22.58719-80.50238-41.969201-35.523329zM563.851098 431.692955c-37.010497 8.971838-75.810034 26.804531-85.252439 39.181317-3.285087 4.306127-9.162728 22.285318-13.060439 39.953757-3.897711 17.668439-18.636208 54.958612-32.753202 82.86853C398.264973 661.942015 385.60851 702.588303 385.652904 745.063586c0.048832 50.772346 26.276254 97.664738 54.621224 97.664738 3.298405 0 18.316578-22.604948 33.379144-50.23075 15.058127-27.630242 29.556901-51.5803 32.220485-53.227283 2.663584-1.642543 5.837688 16.833849 7.058497 41.054705 2.508208 49.587051 16.922636 77.199536 40.295584 77.199536 11.497803 0 17.184555-9.708763 41.622935-71.0289 16.314451-40.943722 32.020716-71.774704 37.072647-72.795745 4.825526-0.972208 31.088462 7.413642 58.36356 18.636208 126.666726 52.099699 216.393985 67.552924 242.244066 41.711722 19.932485-19.923607 20.86474-52.339421 3.027607-105.469039-27.0043-80.449109-92.444114-177.496784-145.698033-216.069916-38.790658-28.100809-152.667743-38.59089-226.005083-20.815907zM642.218172 594.127172C648.730634 600.639634 654.057801 609.962178 654.057801 614.845414c0 11.928416-21.264277 32.553433-33.570034 32.553434-14.689665 0-31.541271-17.703954-31.541271-33.134983 0-13.517688 19.555144-31.976323 33.871907-31.976323 4.15963 0 12.891745 5.327168 19.399769 11.83963zM191.672976-70.290483C142.813971 43.124914 88.503497 275.300633 81.955521 398.797695 76.761532 496.719913 94.358942 519.680005 130.219659 461.764816c36.713063-59.286936 53.613502-77.554681 88.058079-95.169849 29.969757-15.328925 40.344416-17.490867 82.61549-17.21119 58.310288 0.390659 105.46016 13.1803 139.500761 37.840647l25.304046 18.329895 37.219144-14.898312c51.757872-20.718242 124.171836-29.476994 186.752738-22.58719 27.616924 3.040925 52.002034 3.875514 54.190611 1.851191 10.996162-10.166011-63.943768-350.873891-95.524992-434.288457-21.641618-57.164947-35.487815-42.675051-35.629873 37.290173-0.084347 45.525086-5.535815 58.891837-24.025525 58.891838-18.938081 0-29.299422-20.793711-35.638751-71.543861-9.873017-79.068484-20.367537-78.939745-41.445364 0.51496-10.796393 40.703999-17.553017 54.554635-35.367953 72.511629-19.64837 19.799306-25.246335 22.196531-51.864416 22.196531-48.872323 0-72.82238-26.902196-101.438148-113.943674-20.256555-61.604253-41.898173-47.833525-33.27704 21.171051 4.332763 34.653225-2.907746 61.404485-18.201156 67.273248-15.968185 6.126243-29.996393-17.908162-37.805133-64.7606-11.90178-71.459513-22.58719-80.50238-41.969201-35.523329z m368.071763 507.723461c-17.690636 4.972023-42.808231 14.956023-55.815398 22.196531-20.886936 11.617665-24.513849 16.95815-31.030751 45.711537-4.057526 17.903722-22.063352 62.962681-40.007028 100.124114-38.914959 80.586727-50.949918 133.405593-39.620809 173.878749 7.560139 26.990982 30.733317 57.46682 43.696092 57.46682 4.044208 0 20.380855-24.029965 36.300208-53.404855 41.156809-75.916577 44.646103-77.235051 44.672739-16.869363 0.017757 38.954913 2.530405 53.671213 11.750844 68.79149 20.704925 33.956254 29.787745 26.356161 59.943952-50.128647 15.022612-38.115884 31.252716-71.783583 36.060486-74.820068 6.117364-3.857757 29.454797 2.774566 77.736692 22.094427 83.494473 33.40578 163.57068 53.427051 196.20846 49.054335 46.359676-6.215029 55.966334-44.552878 29.769988-118.795837-32.353664-91.70275-121.734657-207.373315-171.770079-222.293823-39.110288-11.662058-160.480923-13.50437-197.895396-3.000971z m81.483467 148.379373c19.577341 13.708578 16.052532 48.881202-6.135121 61.280184-14.765133 8.248231-17.291098 7.990751-32.557872-3.360554-22.791399-16.944832-24.487214-38.90608-4.235099-54.838751 19.080138-15.004855 25.264092-15.453225 42.928092-3.080879zM559.744739 437.437417c-17.690636 4.963144-42.808231 14.951584-55.815398 22.187653-20.886936 11.622104-24.513849 16.962589-31.030751 45.715976-4.057526 17.903722-22.063352 62.962681-40.007028 100.124114-38.914959 80.586727-50.949918 133.405593-39.620809 173.878749 7.560139 26.990982 30.733317 57.46682 43.696092 57.46682 4.044208 0 20.380855-24.029965 36.300208-53.404855 41.156809-75.916577 44.646103-77.235051 44.672739-16.869363 0.017757 38.954913 2.530405 53.671213 11.750844 68.79149 20.704925 33.956254 29.787745 26.356161 59.943952-50.128647 15.022612-38.115884 31.252716-71.783583 36.060486-74.820068 6.117364-3.857757 29.454797 2.774566 77.736692 22.094427 83.494473 33.40578 163.57068 53.427051 196.20846 49.054335 46.359676-6.215029 55.966334-44.552878 29.769988-118.795837-32.353664-91.70275-121.734657-207.373315-171.770079-222.293823-39.110288-11.662058-160.480923-13.50437-197.895396-3.000971z m81.483467 148.374934c19.577341 13.708578 16.052532 48.881202-6.135121 61.280184-14.765133 8.248231-17.291098 7.990751-32.557872-3.360554-22.791399-16.944832-24.487214-38.90608-4.235099-54.838751 19.080138-15.004855 25.264092-15.453225 42.928092-3.080879zM560.832369 443.457116c-17.08689 4.603561-41.476439 13.677503-54.20393 20.167769-19.954682 10.183769-23.67482 15.275653-27.110843 37.11704-2.188578 13.926104-19.546266 58.612161-38.573133 99.307282-37.170312 79.507976-51.535907 132.557686-45.129987 166.695951 4.696786 25.046566 27.457109 61.186959 38.528739 61.186959 4.230659 0 22.436254-26.635838 40.455398-59.193711 48.015537-86.757363 54.64786-87.711814 50.439398-7.267144-2.75237 52.60578-2.184139 56.010728 12.150382 72.662565 8.270428 9.611098 16.647399 15.87052 18.609572 13.912786 1.962173-1.953295 16.345526-35.248092 31.967444-73.981039 18.858173-46.763653 31.780994-71.073294 38.457711-72.360693 5.535815-1.065434 40.650728 10.299191 78.034126 25.259653 120.283004 48.12652 206.774009 61.55986 226.111627 35.114913 25.845641-35.345757-16.838289-151.85979-88.386589-241.262979-43.229965-54.017479-69.124438-72.3163-113.224507-79.9963-50.590335-8.807584-130.258125-7.560139-168.120968 2.636948z m89.074681 143.66927c15.835006 13.917225 11.240324 47.145433-8.554543 61.861733-30.808786 22.90682-73.892253-10.245919-60.991629-46.932346 10.596624-30.129572 44.073433-37.316809 69.546172-14.929387zM597.159213 440.225301c-36.322404 5.322728-83.929525 20.895815-99.182982 32.442451-6.144 4.652393-13.420023 20.975722-16.358843 36.721941-2.916624 15.595283-21.868023 63.011514-42.129017 105.375814-35.811884 74.908854-36.824046 78.353756-36.908393 125.405963-0.06659 40.042543 2.064277 51.25623 12.394544 65.106867 6.863168 9.202682 15.577526 16.736185 19.364254 16.736184 3.786728 0 22.147699-27.96763 40.797225-62.150288 26.613641-48.787976 36.930589-62.580901 47.971143-64.143536 13.730774-1.939977 13.939422-1.305156 8.878613 26.635837-2.854474 15.746219-5.016416 44.037918-4.807769 62.873895 0.306312 27.714589 2.974335 36.748578 14.010451 47.354081 7.497988 7.204994 14.756254 10.441248 16.128 7.182797 1.376185-3.254012 15.080323-36.548809 30.453641-73.985479 27.088647-65.959213 28.500346-68.050126 45.640508-67.357594 9.72652 0.390659 42.990242 11.511121 73.918889 24.709179 103.697756 44.251005 194.463812 60.423398 216.340714 38.546496 23.852393-23.852393-4.714543-124.473709-57.102797-201.144968-25.570404-37.423352-81.101687-95.702565-100.994218-105.992877-8.656647-4.47926-39.287861-10.840786-68.067884-14.13919-57.315884-6.565734-56.778728-6.565734-100.346079-0.177573z m55.038519 143.096599c30.662289 28.811098 10.352462 75.912138-32.735445 75.912138-28.966474 0-43.536277-15.151352-43.536276-45.272045 0-40.015907 46.435144-58.669872 76.267282-30.640093z"  horiz-adv-x="1024" />

    
    <glyph glyph-name="home" unicode="&#58880;" d="M569.8048 874.7264a82.0736 82.0736 0 0 1-110.2848 0L13.568 451.2768a41.1392 41.1392 0 0 1 55.0912-61.1072l7.0912 6.7328V-45.05600000000004a82.2784 82.2784 0 0 1 82.2784-82.3808h239.4368v247.7056a57.9328 57.9328 0 0 0 57.9584 58.0096h112.6656a57.9328 57.9328 0 0 0 57.9584-58.0096v-247.7056h245.12a82.2784 82.2784 0 0 1 82.304 82.3808V391.5008c18.2784-16.5376 44.2112-15.2832 59.4176 1.664a41.1392 41.1392 0 0 1-2.9696 58.112L569.8048 874.7008z"  horiz-adv-x="1024" />

    
    <glyph glyph-name="type" unicode="&#58881;" d="M315.1 896H157.5C70.9 896 0 825.1 0 738.5V581c0-86.6 70.9-157.5 157.5-157.5H315c86.6 0 157.5 70.9 157.5 157.5V738.5C472.6 825.1 401.7 896 315.1 896z m551.4 0H708.9c-86.6 0-157.5-70.9-157.5-157.5V581c0-86.6 70.9-157.5 157.5-157.5h157.5c86.6 0 157.5 70.9 157.5 157.5V738.5C1024 825.1 953.1 896 866.5 896zM315.1 344.6H157.5C70.9 344.6 0 273.70000000000005 0 187.10000000000002v-157.5C0-57.10000000000002 70.9-128 157.5-128H315c86.6 0 157.5 70.9 157.5 157.5V187.10000000000002c0.1 86.6-70.8 157.5-157.4 157.5z m551.4 0H708.9c-86.6 0-157.5-70.9-157.5-157.5v-157.5c0-86.6 70.9-157.5 157.5-157.5h157.5c86.6 0 157.5 70.9 157.5 157.5V187.10000000000002c0.1 86.6-70.8 157.5-157.4 157.5z"  horiz-adv-x="1024" />

    
    <glyph glyph-name="fanhui" unicode="&#59241;" d="M765.831529-121.313882c-10.209882 0-20.389647 3.553882-28.551529 10.691764L229.647059 359.815529a34.996706 34.996706 0 0 0 0 52.495059L737.28 882.748235a42.736941 42.736941 0 0 0 56.560941 0c15.811765-14.275765 15.811765-38.249412 0-52.495059L314.759529 386.319059l479.081412-443.934118c15.811765-14.275765 15.811765-38.249412 0-52.495059a41.562353 41.562353 0 0 0-28.009412-11.203764z"  horiz-adv-x="1024" />

    
    <glyph glyph-name="shezhi" unicode="&#58973;" d="M881 384c0 52.4 32.9 96.8 79 114.5-11 43.2-28 83.9-50.2 121.3C864.6 599.7 810 607.9 773 645c-37 37-45.2 91.7-25.1 136.8C710.4 804 669.7 821 626.5 832c-17.8-46.1-62.2-79-114.5-79-52.4 0-96.8 32.9-114.5 79-43.2-11-83.9-28-121.3-50.2 20.1-45.2 11.9-99.8-25.1-136.8-37-37-91.7-45.2-136.8-25.2C92 582.4 75 541.7 64 498.5c46.1-17.8 79-62.2 79-114.5 0-52.4-32.9-96.8-79-114.5 11-43.2 28-83.9 50.2-121.3C159.4 168.3 214 160.1 251 123c37-37 45.2-91.7 25.1-136.8C313.6-36 354.3-53 397.5-64c17.8 46.1 62.2 79 114.5 79 52.4 0 96.8-32.9 114.5-79 43.2 11 83.9 28 121.3 50.2-20.1 45.2-11.9 99.8 25.1 136.8 37 37 91.7 45.2 136.8 25.2C932 185.6 949 226.3 960 269.5c-46.1 17.7-79 62.1-79 114.5zM512 261c-67.9 0-123 55.1-123 123s55.1 123 123 123 123-55.1 123-123-55.1-123-123-123z"  horiz-adv-x="1024" />

    
    <glyph glyph-name="jiazai1" unicode="&#58974;" d="M290.133333 116.622222c0-5.688889 0-5.688889 0 0 199.111111-227.555556 438.044444-119.466667 614.4-39.822222-147.911111-170.666667-329.955556-199.111111-460.8-182.044444-136.533333 22.755556-233.244444 96.711111-244.622222 108.088888-11.377778 5.688889-17.066667 17.066667-22.755555 28.444445-17.066667 39.822222 0 79.644444 34.133333 96.711111 22.755556 17.066667 56.888889 11.377778 79.644444-11.377778zM335.644444 844.8c39.822222 0 73.955556-34.133333 73.955556-73.955556 0-34.133333-22.755556-56.888889-45.511111-68.266666h-5.688889c-284.444444-85.333333-290.133333-341.333333-290.133333-534.755556C-28.444444 372.622222 22.755556 554.666667 96.711111 662.755556c79.644444 113.777778 187.733333 170.666667 204.8 176.355555 11.377778 0 22.755556 5.688889 34.133333 5.688889z m244.622223 28.444444c221.866667-39.822222 341.333333-187.733333 386.844444-312.888888 51.2-130.844444 34.133333-250.311111 28.444445-267.377778 0-11.377778-5.688889-22.755556-11.377778-34.133334-22.755556-34.133333-68.266667-39.822222-102.4-17.066666-28.444444 17.066667-34.133333 51.2-28.444445 79.644444V327.111111c96.711111 284.444444-113.777778 438.044444-273.066666 546.133333z"  horiz-adv-x="1024" />

    
    <glyph glyph-name="jiazai" unicode="&#59002;" d="M569.890133 896h6.621867c54.4768-1.365333 85.469867-69.768533 55.432533-113.4592-23.005867-41.096533-88.200533-42.461867-112.708266-2.116267C487.765333 822.818133 516.027733 891.630933 569.890133 896zM363.042133 880.503467c46.2848 16.315733 92.023467-34.542933 78.370134-79.598934-7.509333-42.052267-62.600533-65.262933-96.529067-37.546666-41.710933 28.945067-31.470933 102.946133 18.158933 117.1456zM732.706133 817.425067c48.401067 15.906133 98.781867-29.627733 94.8224-78.574934 0.750933-45.533867-44.578133-86.562133-90.180266-75.093333-44.714667 9.147733-70.382933 61.8496-55.159467 103.697067 7.645867 23.415467 26.760533 43.076267 50.517333 49.9712zM180.292267 776.874667c36.181333 23.278933 86.289067-9.898667 83.421866-51.677867 2.6624-39.662933-42.325333-73.045333-78.779733-54.408533-41.915733 17.8176-44.509867 84.445867-4.642133 106.0864zM854.971733 668.740267c42.530133 16.657067 92.3648-12.288 103.560534-55.432534 14.5408-44.6464-12.970667-99.259733-59.869867-109.3632-40.072533-10.24-82.875733 17.134933-94.208 56.046934-14.5408 42.052267 7.645867 94.0032 50.517333 108.7488zM76.253867 615.424c37.6832 10.4448 71.611733-31.744 59.050666-67.037867-7.714133-33.314133-52.701867-49.3568-78.506666-25.8048-32.290133 24.849067-21.162667 83.968 19.456 92.842667zM915.6608 478.481067c46.4896 12.9024 96.187733-21.777067 105.130667-68.061867 12.6976-48.674133-20.343467-105.472-71.2704-112.913067-48.469333-9.352533-95.8464 31.3344-100.010667 79.189334-6.5536 43.963733 22.1184 91.272533 66.1504 101.7856zM0 373.077333c5.5296 27.511467 37.000533 47.3088 63.010133 32.631467 33.041067-16.110933 31.402667-70.519467-3.003733-84.104533-25.463467-11.946667-52.770133 7.3728-60.0064 32.221866V373.077333zM64.170667 197.563733c23.620267 16.315733 57.480533-4.778667 56.661333-32.494933 2.525867-26.350933-26.555733-50.244267-51.541333-38.365867-28.398933 11.195733-31.3344 55.5008-5.12 70.8608zM875.793067 128.887467c10.103467 1.092267 10.922667-15.837867 0.8192-15.837867-10.103467-1.092267-10.8544 15.7696-0.8192 15.837867zM180.6336 25.8048c16.7936 15.496533 46.011733 3.8912 49.834667-17.954133 6.690133-22.3232-15.7696-47.7184-38.912-39.936-24.507733 6.485333-30.583467 42.5984-10.922667 57.890133zM733.115733-22.186667c11.810133 19.387733 35.908267-9.147733 17.134934-18.363733-10.24-10.103467-22.869333 8.260267-17.134934 18.363733zM357.239467-74.3424c15.018667 11.537067 38.775467-1.092267 38.912-19.524267 3.072-17.885867-16.930133-35.2256-33.928534-27.2384-19.114667 6.690133-21.845333 35.976533-4.983466 46.762667zM555.281067-89.838933c21.9136 15.1552 41.7792-25.053867 17.749333-35.293867-21.640533-11.332267-38.161067 24.507733-17.749333 35.293867z"  horiz-adv-x="1024" />

    
    <glyph glyph-name="quanping" unicode="&#59190;" d="M248 88.6V387.3c-2.6 0.3-5.3 0.5-8 0.5-39.1 0-70.8-34.1-70.8-76.1v-228.2c0-42 31.7-76 70.8-76h212.4c39.1 0 70.8 34 70.8 76 0 1.7-0.1 3.4-0.2 5.1H248zM806.4 768H594c-39.1 0-70.8-34.1-70.8-76.1 0-1.2 0-2.4 0.1-3.6h276.9V388c2.1-0.2 4.1-0.3 6.2-0.3 39.1 0 70.8 34 70.8 76V692c0 42-31.7 76-70.8 76z"  horiz-adv-x="1024" />

    
    <glyph glyph-name="yanyuan" unicode="&#59126;" d="M503.151845 358.549126c149.325049 0 271.807379 119.400388 271.807378 268.725437S652.476893 896 503.151845 896 231.344466 773.51767 231.344466 627.274563c0-149.225631 122.382913-268.725437 271.807379-268.725437z m0 474.718447c116.517282 0 212.057476-92.458252 212.057475-208.975534s-95.540194-208.975534-212.057475-208.975534-212.156893 95.540194-212.156894 208.975534c-0.099417 116.417864 95.639612 208.975534 212.156894 208.975534zM601.773981 328.823301H422.424854c-191.279223 0-334.539806-134.412427-334.539805-313.463301v-17.895146c0-119.400388 155.290097-119.400388 334.539805-119.400388h179.150292c173.185243 0 334.539806 0 334.539805 119.400388v17.895146c0.099417 179.050874-143.260583 313.463301-334.34097 313.463301z m274.690485-331.457864c0-31.415922-38.97165-46.427961-95.540194-53.387185V57.11533999999995c0 17.895146-11.930097 29.825243-29.825243 29.825243s-29.825243-11.930097-29.825243-29.825243v-117.809709c-37.679223-1.59068-78.838058-1.59068-119.599223-1.59068H422.424854c-42.15301 0-82.914175 0-119.599223 1.491263V57.11533999999995c0 17.895146-11.930097 29.825243-29.825243 29.825243s-29.825243-11.930097-29.825242-29.825243v-113.733592c-57.860971 6.859806-95.540194 21.573592-95.540195 53.983689v15.012039c0 146.342524 119.599223 253.812816 274.889321 253.812815v3.081942h179.150291c155.290097 0 274.88932-110.552233 274.88932-253.812816l-0.099417-18.09398z"  horiz-adv-x="1024" />

    
    <glyph glyph-name="jianjie" unicode="&#58900;" d="M76.860235 393.818353a56.862118 56.862118 0 0 1 0-80.414118l364.544-364.544a56.862118 56.862118 0 0 1 80.414118 0L602.352941 29.394824 157.394824 474.352941 76.860235 393.818353zM933.586824 363.580235c7.830588 5.421176 13.974588 14.938353 16.143058 29.515294l13.19153 377.976471c6.204235 41.321412-22.467765 70.053647-63.789177 63.849412l-377.554823-13.131294c-13.432471-2.048-22.588235-7.228235-28.431059-13.854118a55.235765 55.235765 0 0 1-8.252235-6.746353L180.705882 496.64 624.218353 52.705882l304.188235 304.489412c1.927529 1.987765 3.553882 4.216471 5.180236 6.384941z m-206.607059 159.864471a90.232471 90.232471 0 0 0-25.6 7.228235c-1.987765 0.963765-3.975529 2.048-5.903059 3.132235-2.409412 1.325176-4.818824 2.529882-7.04753 4.096a84.811294 84.811294 0 0 0-12.468705 10.24 84.510118 84.510118 0 0 0-10.11953 12.408471c-1.626353 2.288941-2.891294 4.818824-4.21647 7.168-1.024 1.927529-2.108235 3.794824-3.011765 5.842824a91.798588 91.798588 0 0 0-7.228235 25.479529 87.160471 87.160471 0 0 0 148.178823 72.884706 87.582118 87.582118 0 0 0 0-123.843765c-19.757176-19.877647-46.802824-27.828706-72.643765-24.636235z"  horiz-adv-x="1024" />

    
    <glyph glyph-name="dongman" unicode="&#58892;" d="M875.21179 620.650815c31.30396 30.41266 28.076452 76.580143-7.176446 102.595656 0 0-96.182596 106.244766-282.235013 106.244766-253.249865 0-458.536344-199.448518-458.536344-445.503517 0-246.0243 205.28648-445.478957 458.536344-445.478957 169.954787 0 271.28666 97.111758 271.28666 97.111758 35.871999 25.188682 40.517809 71.526033 10.310833 102.966093L686.55506 326.822766c-30.204929 31.446199-29.309536 82.053808 1.99647 112.467491L875.21179 620.650815zM552.217469 626.8254440000001c0 44.675502 36.328393 80.869842 81.116459 80.869842 44.841278 0 81.143065-36.19434 81.143065-80.869842 0-44.669362-36.301787-80.882122-81.143065-80.882122C588.545862 545.9433220000001 552.217469 582.156082 552.217469 626.8254440000001z"  horiz-adv-x="1024" />

    
    <glyph glyph-name="zongyi" unicode="&#58889;" d="M801.382 460.698a52.582 52.582 0 0 1-41.42 34.099L623.104 514.56l-59.392 121.395c-8.704 17.306-27.29 29.082-47.053 29.082s-38.4-11.162-47.053-29.082L410.112 514.56l-136.806-19.763a50.534 50.534 0 0 1-41.524-34.1 49.869 49.869 0 0 1 12.442-52.07l100.25-98.457-23.45-136.807a49.357 49.357 0 0 1 21.606-49.459c16.077-11.213 37.735-11.776 55.143-3.174l118.886 63.078 118.887-63.078a48.794 48.794 0 0 1 24.73-6.196c10.546 0 21.042 3.175 29.746 9.37a51.2 51.2 0 0 1 21.658 49.46L688.128 310.22l100.3 98.457a49.971 49.971 0 0 1 12.954 52.02z m-102.707-50.79l-77.977-76.8 17.92-107.111c1.228-6.81 1.894-18.023-4.301-21.709-6.247-4.25-18.023-0.614-24.167 3.174l-93.542 49.562-93.491-49.562c-6.861-3.737-17.306-7.424-23.45-3.174-6.297 4.352-6.297 15.514-5.017 22.374l17.92 107.06-77.978 76.185c-4.966 4.967-8.653 13.005-6.81 19.2 2.458 6.81 10.548 10.547 17.92 11.162l106.496 16.025 47.053 95.386c3.072 6.246 9.933 14.234 17.92 14.234 7.475 0 14.285-7.988 18.023-14.234l46.387-95.386 107.11-15.462c7.475-1.178 17.357-4.3 19.251-11.11 1.844-6.247-4.3-14.848-9.267-19.815z m0 0M516.608 884.224c-276.787 0-500.94-224.205-500.94-500.94s224.153-500.942 500.94-500.942c276.736 0 500.94 224.205 500.94 500.941S793.345 884.224 516.609 884.224z m0-926.976A425.984 425.984 0 0 0 90.624 383.283 425.984 425.984 0 0 0 516.608 809.318a425.984 425.984 0 0 0 426.035-426.035 425.933 425.933 0 0 0-426.035-426.035z m0 0"  horiz-adv-x="1024" />

    
    <glyph glyph-name="juji" unicode="&#60159;" d="M219.428571 676.571429a73.142857 73.142857 0 0 1-73.142857-73.142858v-585.142857a73.142857 73.142857 0 0 1 73.142857-73.142857h585.142858a73.142857 73.142857 0 0 1 73.142857 73.142857V603.428571a73.142857 73.142857 0 0 1-73.142857 73.142858H219.428571z m0 73.142857h585.142858a146.285714 146.285714 0 0 0 146.285714-146.285715v-585.142857a146.285714 146.285714 0 0 0-146.285714-146.285714H219.428571a146.285714 146.285714 0 0 0-146.285714 146.285714V603.428571a146.285714 146.285714 0 0 0 146.285714 146.285715z m109.714286-219.428572h219.428572a36.571429 36.571429 0 0 0 0-73.142857h-219.428572a36.571429 36.571429 0 0 0 0 73.142857z m0-219.428571h365.714286a36.571429 36.571429 0 0 0 0-73.142857h-365.714286a36.571429 36.571429 0 0 0 0 73.142857z"  horiz-adv-x="1024" />

    
    <glyph glyph-name="tv" unicode="&#58884;" d="M928 64l-832 0C43.072 64 0 107.00800000000004 0 160l0 576C0 788.928 43.072 832 96 832l832 0C980.864 832 1024 788.928 1024 736l0-576C1024 107.00800000000004 980.864 64 928 64zM96 768C78.4 768 64 753.664 64 736l0-576C64 142.39999999999998 78.4 128 96 128l832 0c17.6 0 32 14.4 32 32l0 576C960 753.664 945.6 768 928 768L96 768zM192 0l640 0 0-64-640 0 0 64ZM444.672 570.688C410.304 588.992 384 575.168 384 539.9680000000001l0-185.344C384 319.36 410.24 305.6 444.48 324.096l167.04 90.304c34.112 18.432 34.624 48.512 0.256 66.816L444.672 570.688z"  horiz-adv-x="1024" />

    
    <glyph glyph-name="dianying" unicode="&#59150;" d="M460.719 377.844c0-27.2 22.050-49.249 49.249-49.249s49.249 22.050 49.249 49.249c0 27.2-22.050 49.249-49.249 49.249-27.2 0-49.249-22.050-49.249-49.249zM269.877 197.282c0-58.922 47.765-106.687 106.687-106.687s106.687 47.765 106.687 106.687c0 58.922-47.765 106.687-106.687 106.687-58.922 0-106.687-47.765-106.687-106.687zM538.718 197.282c0 0 0 0 0 0 0-58.922 47.765-106.687 106.687-106.687 58.922 0 106.687 47.765 106.687 106.687 0 0 0 0 0 0 0 58.922-47.765 106.687-106.687 106.687-58.922 0-106.687-47.765-106.687-106.687zM185.782 451.718c0 0 0 0 0 0 0-58.922 47.765-106.687 106.687-106.687 58.922 0 106.687 47.765 106.687 106.687 0 0 0 0 0 0 0 58.922-47.765 106.687-106.687 106.687-58.922 0-106.687-47.765-106.687-106.687zM624.843 451.718c0 0 0 0 0 0 0-58.922 47.765-106.687 106.687-106.687 58.922 0 106.687 47.765 106.687 106.687 0 0 0 0 0 0 0 58.922-47.765 106.687-106.687 106.687-58.922 0-106.687-47.765-106.687-106.687zM405.313 611.78c0-58.922 47.765-106.687 106.687-106.687s106.687 47.765 106.687 106.687c0 58.922-47.765 106.687-106.687 106.687-58.922 0-106.687-47.765-106.687-106.687zM922.434-26.434h-137.469c133.343 88.28 219.53 240.092 219.53 410.434 0 272.905-219.53 492.497-492.497 492.497s-492.497-219.592-492.497-492.497c0-272.967 219.53-492.497 492.497-492.497h410.434c22.532 0 41 18.469 41 41.062 0 22.532-18.469 41-41 41zM512-26.434c-225.749 0-410.434 184.748-410.434 410.434 0 225.749 184.687 410.434 410.434 410.434s410.434-184.687 410.434-410.434c0-225.687-184.687-410.434-410.434-410.434z"  horiz-adv-x="1024" />

    
    <glyph glyph-name="hot" unicode="&#58896;" d="M512 896C229.2736 896 0 666.7264 0 384c0-282.7264 229.2736-512 512-512 282.7264 0 512 229.2736 512 512C1024 666.7264 794.7264 896 512 896z m222.088533-608.631467c-19.370667-107.844267-145.6128-149.128533-145.6128-149.128533 9.437867 23.04 26.077867 31.368533 30.5664 101.922133 5.751467 91.0336-87.04 181.6064-84.48 173.124267 15.035733-48.008533-41.762133-123.357867-41.762133-123.357867 6.877867 48.7936-13.9264 68.625067-13.9264 68.625067 1.28-23.517867-2.7136-41.915733-13.431467-54.237867-13.277867-15.189333-34.884267-19.5072-49.595733-78.3872-14.728533-58.7264 18.397867-87.688533 18.397867-87.688533s-134.877867 48.162133-126.72 156.962133c5.597867 75.195733 61.44 155.357867 71.509333 175.991467 4.8128 9.762133 8.8064 20.1728 4.488533-13.431467-3.6864-29.764267 3.84-75.997867 6.877867-77.277866 2.884267-1.28 44.151467 37.597867 71.8336 77.909333 21.128533 30.72 41.9328 81.442133 16.3328 142.574933-3.5328 8.311467-7.3728 11.195733 11.195733 4.625067 19.831467-7.031467 56.951467-29.5936 96.631467-85.76 43.844267-61.917867 51.2-101.4272 53.128533-98.8672 3.6864 5.2736 16.7936 29.269333 0.955734 77.1072-12.151467 36.642133-14.08 34.730667 27.835733-4.625067 50.244267-47.2064 79.0528-131.6864 65.774933-206.08z"  horiz-adv-x="1024" />

    
    <glyph glyph-name="guanyu" unicode="&#59176;" d="M512 864C246.4 864 32 649.6 32 384s214.4-480 480-480 480 214.4 480 480S777.6 864 512 864z m0-896C281.6-32 96 153.6 96 384S281.6 800 512 800s416-185.6 416-416-185.6-416-416-416zM512 480c-25.6 0-48-22.4-48-48v-256c0-25.6 22.4-48 48-48s48 22.4 48 48v256c0 25.6-22.4 48-48 48zM512 592m-48 0a48 48 0 1 1 96 0 48 48 0 1 1-96 0Z"  horiz-adv-x="1024" />

    
    <glyph glyph-name="bofang" unicode="&#58963;" d="M852.727563 503.552893C956.997809 437.526365 956.941389 330.440483 852.727563 264.44968L281.888889-97.019655C177.618644-163.046186 93.090909-120.054114 93.090909-1.137364L93.090909 769.139937C93.090909 888.120794 177.675064 931.013033 281.888889 865.022231L852.727563 503.552893 852.727563 503.552893Z"  horiz-adv-x="1024" />

    
    <glyph glyph-name="zanting" unicode="&#59242;" d="M757.52 822.893h-62.493c-34.526 0-62.498-27.984-62.498-62.511v-749.948c0-34.526 27.974-62.493 62.498-62.493h62.493c34.516 0 62.502 27.968 62.502 62.493v749.953c-0.001 34.524-27.984 62.509-62.502 62.509zM320.054 822.893h-62.502c-34.526 0-62.498-27.984-62.498-62.511v-749.948c0-34.526 27.974-62.493 62.498-62.493h62.502c34.505 0 62.493 27.968 62.493 62.493v749.953c-0.001 34.524-27.984 62.509-62.493 62.509z"  horiz-adv-x="1024" />

    
    <glyph glyph-name="shangyishou" unicode="&#58883;" d="M206 31h-38c-30.928 0-56 25.072-56 56V680c0 30.928 25.072 56 56 56h38c30.928 0 56-25.072 56-56v-593c0-30.928-25.072-56-56-56z m168.686 386.191l422.304 303.4c32.294 23.201 77.282 15.83 100.484-16.464A72 72 0 0 0 911 662.117v-559.053c0-39.764-32.235-72-72-72a72 72 0 0 0-39.95 12.1L376.288 325.123c-25.73 17.16-32.677 51.93-15.517 77.66a56 56 0 0 0 13.915 14.408z"  horiz-adv-x="1024" />

    
    <glyph glyph-name="xiayishou" unicode="&#58882;" d="M817 736h38c30.928 0 56-25.072 56-56v-593c0-30.928-25.072-56-56-56h-38c-30.928 0-56 25.072-56 56V680c0 30.928 25.072 56 56 56zM648.314 349.809l-422.304-303.4c-32.294-23.201-77.282-15.83-100.484 16.464A72 72 0 0 0 112 104.883V663.936c0 39.764 32.235 72 72 72a72 72 0 0 0 39.95-12.1l422.762-281.959c25.73-17.16 32.677-51.93 15.517-77.66a56 56 0 0 0-13.915-14.408z"  horiz-adv-x="1024" />

    


  </font>
</defs>
</svg>
